<svg xmlns="http://www.w3.org/2000/svg" width="900" height="620" font-family="Arial, sans-serif">

  <!-- Background -->
  <rect width="900" height="620" fill="#f5f5f5"/>

  <!-- Header -->
  <defs>
    <linearGradient id="headerGrad" x1="0%" y1="0%" x2="100%" y2="100%">
      <stop offset="0%" style="stop-color:#0071c5"/>
      <stop offset="100%" style="stop-color:#004d99"/>
    </linearGradient>
  </defs>
  <rect x="20" y="20" width="860" height="72" rx="8" fill="url(#headerGrad)"/>
  <text x="40" y="50" fill="white" font-size="18" font-weight="bold">SonarQube Report — Frontend Team</text>
  <text x="40" y="72" fill="white" font-size="12" opacity="0.85">Generated: 2026-03-27  |  SonarQube: https://sonarqube.yourcompany.com</text>

  <!-- Summary Cards -->
  <!-- Blocker -->
  <rect x="20" y="108" width="112" height="72" rx="8" fill="white" filter="drop-shadow(0 2px 4px rgba(0,0,0,0.08))"/>
  <rect x="20" y="108" width="112" height="4" rx="2" fill="#e53935"/>
  <text x="76" y="142" fill="#e53935" font-size="26" font-weight="bold" text-anchor="middle">3</text>
  <text x="76" y="162" fill="#888" font-size="10" text-anchor="middle">Blocker Issues</text>

  <!-- High -->
  <rect x="142" y="108" width="112" height="72" rx="8" fill="white" filter="drop-shadow(0 2px 4px rgba(0,0,0,0.08))"/>
  <rect x="142" y="108" width="112" height="4" rx="2" fill="#f0a500"/>
  <text x="198" y="142" fill="#f0a500" font-size="26" font-weight="bold" text-anchor="middle">12</text>
  <text x="198" y="162" fill="#888" font-size="10" text-anchor="middle">High Issues</text>

  <!-- Medium -->
  <rect x="264" y="108" width="112" height="72" rx="8" fill="white" filter="drop-shadow(0 2px 4px rgba(0,0,0,0.08))"/>
  <rect x="264" y="108" width="112" height="4" rx="2" fill="#f0a500"/>
  <text x="320" y="142" fill="#f0a500" font-size="26" font-weight="bold" text-anchor="middle">27</text>
  <text x="320" y="162" fill="#888" font-size="10" text-anchor="middle">Medium Issues</text>

  <!-- Security -->
  <rect x="386" y="108" width="112" height="72" rx="8" fill="white" filter="drop-shadow(0 2px 4px rgba(0,0,0,0.08))"/>
  <rect x="386" y="108" width="112" height="4" rx="2" fill="#e53935"/>
  <text x="442" y="142" fill="#e53935" font-size="26" font-weight="bold" text-anchor="middle">5</text>
  <text x="442" y="162" fill="#888" font-size="10" text-anchor="middle">Security Issues</text>

  <!-- Hotspots -->
  <rect x="508" y="108" width="112" height="72" rx="8" fill="white" filter="drop-shadow(0 2px 4px rgba(0,0,0,0.08))"/>
  <rect x="508" y="108" width="112" height="4" rx="2" fill="#f0a500"/>
  <text x="564" y="142" fill="#f0a500" font-size="26" font-weight="bold" text-anchor="middle">8</text>
  <text x="564" y="162" fill="#888" font-size="10" text-anchor="middle">Hotspots to Review</text>

  <!-- Failing -->
  <rect x="630" y="108" width="112" height="72" rx="8" fill="white" filter="drop-shadow(0 2px 4px rgba(0,0,0,0.08))"/>
  <rect x="630" y="108" width="112" height="4" rx="2" fill="#e53935"/>
  <text x="686" y="142" fill="#e53935" font-size="26" font-weight="bold" text-anchor="middle">2</text>
  <text x="686" y="162" fill="#888" font-size="10" text-anchor="middle">Failing Gate</text>

  <!-- Passing -->
  <rect x="752" y="108" width="128" height="72" rx="8" fill="white" filter="drop-shadow(0 2px 4px rgba(0,0,0,0.08))"/>
  <rect x="752" y="108" width="128" height="4" rx="2" fill="#36a64f"/>
  <text x="816" y="142" fill="#36a64f" font-size="26" font-weight="bold" text-anchor="middle">1</text>
  <text x="816" y="162" fill="#888" font-size="10" text-anchor="middle">Passing Gate</text>

  <!-- Action Box -->
  <rect x="20" y="196" width="860" height="86" rx="8" fill="#e3f2fd"/>
  <text x="40" y="218" fill="#0071c5" font-size="13" font-weight="bold">Action Required</text>
  <text x="40" y="238" fill="#333" font-size="12">• Fix all Blocker severity issues immediately</text>
  <text x="40" y="254" fill="#333" font-size="12">• Fix all High severity issues</text>
  <text x="400" y="238" fill="#333" font-size="12">• Review all Security Hotspots — mark as Safe or fix</text>
  <text x="400" y="254" fill="#333" font-size="12">• Fix all Software Quality Security issues</text>

  <!-- Table Section -->
  <rect x="20" y="298" width="860" height="288" rx="8" fill="white" filter="drop-shadow(0 2px 4px rgba(0,0,0,0.08))"/>

  <!-- Section Header -->
  <text x="40" y="322" fill="#333" font-size="14" font-weight="bold">Project Issues Breakdown</text>
  <text x="780" y="322" fill="#888" font-size="11">Overall Code</text>
  <line x1="20" y1="332" x2="880" y2="332" stroke="#eee" stroke-width="1"/>

  <!-- Table Header -->
  <rect x="20" y="332" width="860" height="32" fill="#f8f9fa"/>
  <text x="40"  y="352" fill="#555" font-size="11" font-weight="bold">Project</text>
  <text x="240" y="352" fill="#555" font-size="11" font-weight="bold">Blocker</text>
  <text x="315" y="352" fill="#555" font-size="11" font-weight="bold">High</text>
  <text x="375" y="352" fill="#555" font-size="11" font-weight="bold">Medium</text>
  <text x="455" y="352" fill="#555" font-size="11" font-weight="bold">Security</text>
  <text x="540" y="352" fill="#555" font-size="11" font-weight="bold">Hotspots</text>
  <text x="625" y="352" fill="#555" font-size="11" font-weight="bold">Reliability</text>
  <text x="710" y="352" fill="#555" font-size="11" font-weight="bold">Gate Status</text>
  <text x="810" y="352" fill="#555" font-size="11" font-weight="bold">Link</text>
  <line x1="20" y1="364" x2="880" y2="364" stroke="#eee" stroke-width="2"/>

  <!-- Row 1 -->
  <text x="40"  y="388" fill="#333" font-size="12" font-weight="bold">Frontend Web</text>
  <text x="40"  y="402" fill="#aaa" font-size="10">frontend-web</text>
  <text x="255" y="392" fill="#e53935" font-size="14" font-weight="bold" text-anchor="middle">2</text>
  <text x="325" y="392" fill="#e53935" font-size="14" font-weight="bold" text-anchor="middle">7</text>
  <text x="395" y="392" fill="#e53935" font-size="14" font-weight="bold" text-anchor="middle">14</text>
  <text x="470" y="392" fill="#e53935" font-size="14" font-weight="bold" text-anchor="middle">3</text>
  <text x="555" y="392" fill="#e53935" font-size="14" font-weight="bold" text-anchor="middle">5</text>
  <text x="645" y="392" fill="#e53935" font-size="14" font-weight="bold" text-anchor="middle">4</text>
  <rect x="705" y="380" width="52" height="18" rx="9" fill="#ffebee"/>
  <text x="731" y="393" fill="#b71c1c" font-size="10" font-weight="bold" text-anchor="middle">FAILED</text>
  <text x="825" y="393" fill="#0071c5" font-size="11" font-weight="bold">View →</text>
  <line x1="20" y1="412" x2="880" y2="412" stroke="#f0f0f0" stroke-width="1"/>

  <!-- Row 2 -->
  <text x="40"  y="436" fill="#333" font-size="12" font-weight="bold">Frontend Mobile</text>
  <text x="40"  y="450" fill="#aaa" font-size="10">frontend-mobile</text>
  <text x="255" y="440" fill="#e53935" font-size="14" font-weight="bold" text-anchor="middle">1</text>
  <text x="325" y="440" fill="#e53935" font-size="14" font-weight="bold" text-anchor="middle">4</text>
  <text x="395" y="440" fill="#e53935" font-size="14" font-weight="bold" text-anchor="middle">9</text>
  <text x="470" y="440" fill="#e53935" font-size="14" font-weight="bold" text-anchor="middle">2</text>
  <text x="555" y="440" fill="#e53935" font-size="14" font-weight="bold" text-anchor="middle">3</text>
  <text x="645" y="440" fill="#e53935" font-size="14" font-weight="bold" text-anchor="middle">2</text>
  <rect x="705" y="428" width="52" height="18" rx="9" fill="#ffebee"/>
  <text x="731" y="441" fill="#b71c1c" font-size="10" font-weight="bold" text-anchor="middle">FAILED</text>
  <text x="825" y="441" fill="#0071c5" font-size="11" font-weight="bold">View →</text>
  <line x1="20" y1="460" x2="880" y2="460" stroke="#f0f0f0" stroke-width="1"/>

  <!-- Row 3 -->
  <text x="40"  y="484" fill="#333" font-size="12" font-weight="bold">Auth Service</text>
  <text x="40"  y="498" fill="#aaa" font-size="10">auth-service</text>
  <text x="255" y="488" fill="#36a64f" font-size="14" text-anchor="middle">✓</text>
  <text x="325" y="488" fill="#e53935" font-size="14" font-weight="bold" text-anchor="middle">1</text>
  <text x="395" y="488" fill="#e53935" font-size="14" font-weight="bold" text-anchor="middle">4</text>
  <text x="470" y="488" fill="#36a64f" font-size="14" text-anchor="middle">✓</text>
  <text x="555" y="488" fill="#36a64f" font-size="14" text-anchor="middle">✓</text>
  <text x="645" y="488" fill="#36a64f" font-size="14" text-anchor="middle">✓</text>
  <rect x="705" y="476" width="56" height="18" rx="9" fill="#e8f5e9"/>
  <text x="733" y="489" fill="#1b5e20" font-size="10" font-weight="bold" text-anchor="middle">PASSED</text>
  <text x="825" y="489" fill="#0071c5" font-size="11" font-weight="bold">View →</text>

  <!-- Footer -->
  <text x="450" y="598" fill="#aaa" font-size="11" text-anchor="middle">SonarQube Report  •  Frontend Team  •  2026-03-27  •  Generated by DevOps Platform Team</text>

</svg>
